<mxfile host="app.diagrams.net" agent="Mozilla/5.0 (Windows NT 10.0; Win64; x64) AppleWebKit/537.36 (KHTML, like Gecko) Chrome/127.0.0.0 Safari/537.36" version="24.7.7">
  <diagram name="Page-1" id="a0y9RePdhK0FjLGEf5SY">
    <mxGraphModel dx="1434" dy="738" grid="0" gridSize="10" guides="1" tooltips="1" connect="1" arrows="1" fold="1" page="1" pageScale="1" pageWidth="827" pageHeight="1169" math="0" shadow="0">
      <root>
        <mxCell id="0" />
        <mxCell id="1" parent="0" />
        <mxCell id="wA4WOY-ejQYb3zzODAYl-22" value="http://&amp;lt;webpage address&amp;gt;" style="text;html=1;align=center;verticalAlign=middle;whiteSpace=wrap;rounded=0;" vertex="1" parent="1">
          <mxGeometry x="110" y="37" width="495" height="30" as="geometry" />
        </mxCell>
        <mxCell id="wA4WOY-ejQYb3zzODAYl-24" value="Apply" style="rounded=1;whiteSpace=wrap;html=1;" vertex="1" parent="1">
          <mxGeometry x="94" y="1814" width="62" height="21" as="geometry" />
        </mxCell>
        <mxCell id="wA4WOY-ejQYb3zzODAYl-25" value="Researchers" style="rounded=1;whiteSpace=wrap;html=1;" vertex="1" parent="1">
          <mxGeometry x="326.5" y="91" width="72.5" height="21" as="geometry" />
        </mxCell>
        <mxCell id="wA4WOY-ejQYb3zzODAYl-26" value="Publication" style="rounded=1;whiteSpace=wrap;html=1;" vertex="1" parent="1">
          <mxGeometry x="245" y="91" width="62" height="21" as="geometry" />
        </mxCell>
        <mxCell id="wA4WOY-ejQYb3zzODAYl-27" value="Projects" style="rounded=1;whiteSpace=wrap;html=1;" vertex="1" parent="1">
          <mxGeometry x="154" y="91" width="62" height="21" as="geometry" />
        </mxCell>
        <mxCell id="wA4WOY-ejQYb3zzODAYl-33" value="" style="rounded=1;whiteSpace=wrap;html=1;" vertex="1" parent="1">
          <mxGeometry x="134" y="156" width="342" height="313" as="geometry" />
        </mxCell>
        <mxCell id="wA4WOY-ejQYb3zzODAYl-34" value="About HAAG" style="text;html=1;align=center;verticalAlign=middle;whiteSpace=wrap;rounded=0;" vertex="1" parent="1">
          <mxGeometry x="252" y="170" width="89" height="30" as="geometry" />
        </mxCell>
        <mxCell id="wA4WOY-ejQYb3zzODAYl-35" value="" style="image;aspect=fixed;html=1;points=[];align=center;fontSize=12;image=img/lib/azure2/general/Image.svg;" vertex="1" parent="1">
          <mxGeometry x="397" y="239" width="64" height="44" as="geometry" />
        </mxCell>
        <mxCell id="wA4WOY-ejQYb3zzODAYl-36" value="" style="image;aspect=fixed;html=1;points=[];align=center;fontSize=12;image=img/lib/azure2/general/Image.svg;" vertex="1" parent="1">
          <mxGeometry x="397" y="342" width="64" height="44" as="geometry" />
        </mxCell>
        <mxCell id="wA4WOY-ejQYb3zzODAYl-37" value="Information" style="rounded=1;whiteSpace=wrap;html=1;" vertex="1" parent="1">
          <mxGeometry x="151" y="236" width="197" height="161" as="geometry" />
        </mxCell>
        <mxCell id="wA4WOY-ejQYb3zzODAYl-38" value="Bree Pic" style="text;html=1;align=center;verticalAlign=middle;whiteSpace=wrap;rounded=0;" vertex="1" parent="1">
          <mxGeometry x="399" y="287" width="60" height="30" as="geometry" />
        </mxCell>
        <mxCell id="wA4WOY-ejQYb3zzODAYl-39" value="&amp;lt;image&amp;gt;" style="text;html=1;align=center;verticalAlign=middle;whiteSpace=wrap;rounded=0;" vertex="1" parent="1">
          <mxGeometry x="395" y="394" width="60" height="30" as="geometry" />
        </mxCell>
        <mxCell id="wA4WOY-ejQYb3zzODAYl-40" value="" style="sketch=0;points=[[0,0,0],[0.25,0,0],[0.5,0,0],[0.75,0,0],[1,0,0],[0,1,0],[0.25,1,0],[0.5,1,0],[0.75,1,0],[1,1,0],[0,0.25,0],[0,0.5,0],[0,0.75,0],[1,0.25,0],[1,0.5,0],[1,0.75,0]];points=[[0,0,0],[0.25,0,0],[0.5,0,0],[0.75,0,0],[1,0,0],[0,1,0],[0.25,1,0],[0.5,1,0],[0.75,1,0],[1,1,0],[0,0.25,0],[0,0.5,0],[0,0.75,0],[1,0.25,0],[1,0.5,0],[1,0.75,0]];outlineConnect=0;fontColor=#232F3E;fillColor=#E7157B;strokeColor=#ffffff;dashed=0;verticalLabelPosition=bottom;verticalAlign=top;align=center;html=1;fontSize=12;fontStyle=0;aspect=fixed;shape=mxgraph.aws4.resourceIcon;resIcon=mxgraph.aws4.chatbot;" vertex="1" parent="1">
          <mxGeometry x="558" y="386" width="78" height="78" as="geometry" />
        </mxCell>
        <mxCell id="wA4WOY-ejQYb3zzODAYl-41" value="ChatBot" style="text;html=1;align=center;verticalAlign=middle;whiteSpace=wrap;rounded=0;" vertex="1" parent="1">
          <mxGeometry x="570" y="475" width="60" height="30" as="geometry" />
        </mxCell>
        <mxCell id="wA4WOY-ejQYb3zzODAYl-42" value="Projects" style="rounded=1;whiteSpace=wrap;html=1;" vertex="1" parent="1">
          <mxGeometry x="116" y="642" width="62" height="21" as="geometry" />
        </mxCell>
        <mxCell id="wA4WOY-ejQYb3zzODAYl-45" value="" style="rounded=0;whiteSpace=wrap;html=1;" vertex="1" parent="1">
          <mxGeometry x="118" y="690" width="581" height="359" as="geometry" />
        </mxCell>
        <mxCell id="wA4WOY-ejQYb3zzODAYl-53" value="" style="group" vertex="1" connectable="0" parent="1">
          <mxGeometry x="127" y="872" width="356" height="154" as="geometry" />
        </mxCell>
        <mxCell id="wA4WOY-ejQYb3zzODAYl-46" value="" style="rounded=0;whiteSpace=wrap;html=1;" vertex="1" parent="wA4WOY-ejQYb3zzODAYl-53">
          <mxGeometry x="4" width="352" height="154" as="geometry" />
        </mxCell>
        <mxCell id="wA4WOY-ejQYb3zzODAYl-47" value="&amp;lt;Name&amp;gt;" style="text;html=1;align=center;verticalAlign=middle;whiteSpace=wrap;rounded=0;" vertex="1" parent="wA4WOY-ejQYb3zzODAYl-53">
          <mxGeometry y="3" width="60" height="30" as="geometry" />
        </mxCell>
        <mxCell id="wA4WOY-ejQYb3zzODAYl-50" value="&amp;lt;Researchers&amp;gt;" style="text;html=1;align=center;verticalAlign=middle;whiteSpace=wrap;rounded=0;" vertex="1" parent="wA4WOY-ejQYb3zzODAYl-53">
          <mxGeometry x="9" y="89" width="88" height="30" as="geometry" />
        </mxCell>
        <mxCell id="wA4WOY-ejQYb3zzODAYl-51" value="" style="image;aspect=fixed;html=1;points=[];align=center;fontSize=12;image=img/lib/azure2/general/Image.svg;" vertex="1" parent="wA4WOY-ejQYb3zzODAYl-53">
          <mxGeometry x="227" y="26" width="64" height="44" as="geometry" />
        </mxCell>
        <mxCell id="wA4WOY-ejQYb3zzODAYl-52" value="Project related Image/Video" style="text;html=1;align=center;verticalAlign=middle;whiteSpace=wrap;rounded=0;" vertex="1" parent="wA4WOY-ejQYb3zzODAYl-53">
          <mxGeometry x="229" y="98" width="89" height="30" as="geometry" />
        </mxCell>
        <mxCell id="wA4WOY-ejQYb3zzODAYl-49" value="&amp;lt;Milestone&amp;gt;" style="text;html=1;align=center;verticalAlign=middle;whiteSpace=wrap;rounded=0;" vertex="1" parent="wA4WOY-ejQYb3zzODAYl-53">
          <mxGeometry x="7" y="54" width="60" height="30" as="geometry" />
        </mxCell>
        <mxCell id="wA4WOY-ejQYb3zzODAYl-61" value="&amp;lt;Abstract&amp;gt;" style="text;html=1;align=center;verticalAlign=middle;whiteSpace=wrap;rounded=0;" vertex="1" parent="wA4WOY-ejQYb3zzODAYl-53">
          <mxGeometry x="9" y="28" width="60" height="30" as="geometry" />
        </mxCell>
        <mxCell id="wA4WOY-ejQYb3zzODAYl-54" value="" style="rounded=0;whiteSpace=wrap;html=1;" vertex="1" parent="1">
          <mxGeometry x="131" y="705" width="352" height="154" as="geometry" />
        </mxCell>
        <mxCell id="wA4WOY-ejQYb3zzODAYl-56" value="&amp;lt;Name&amp;gt;" style="text;html=1;align=center;verticalAlign=middle;whiteSpace=wrap;rounded=0;" vertex="1" parent="1">
          <mxGeometry x="136.5" y="721" width="60" height="30" as="geometry" />
        </mxCell>
        <mxCell id="wA4WOY-ejQYb3zzODAYl-57" value="&amp;lt;Researchers&amp;gt;" style="text;html=1;align=center;verticalAlign=middle;whiteSpace=wrap;rounded=0;" vertex="1" parent="1">
          <mxGeometry x="145.5" y="807" width="88" height="30" as="geometry" />
        </mxCell>
        <mxCell id="wA4WOY-ejQYb3zzODAYl-58" value="&amp;lt;Milestone&amp;gt;" style="text;html=1;align=center;verticalAlign=middle;whiteSpace=wrap;rounded=0;" vertex="1" parent="1">
          <mxGeometry x="143.5" y="772" width="60" height="30" as="geometry" />
        </mxCell>
        <mxCell id="wA4WOY-ejQYb3zzODAYl-59" value="" style="image;aspect=fixed;html=1;points=[];align=center;fontSize=12;image=img/lib/azure2/general/Image.svg;" vertex="1" parent="1">
          <mxGeometry x="376.5" y="733" width="64" height="44" as="geometry" />
        </mxCell>
        <mxCell id="wA4WOY-ejQYb3zzODAYl-60" value="Project related Image/Video" style="text;html=1;align=center;verticalAlign=middle;whiteSpace=wrap;rounded=0;" vertex="1" parent="1">
          <mxGeometry x="364" y="797" width="89" height="30" as="geometry" />
        </mxCell>
        <mxCell id="wA4WOY-ejQYb3zzODAYl-48" value="&amp;lt;Abstract&amp;gt;" style="text;html=1;align=center;verticalAlign=middle;whiteSpace=wrap;rounded=0;" vertex="1" parent="1">
          <mxGeometry x="139" y="746" width="60" height="30" as="geometry" />
        </mxCell>
        <mxCell id="wA4WOY-ejQYb3zzODAYl-63" value="Publication" style="rounded=1;whiteSpace=wrap;html=1;" vertex="1" parent="1">
          <mxGeometry x="106" y="1123" width="62" height="21" as="geometry" />
        </mxCell>
        <mxCell id="wA4WOY-ejQYb3zzODAYl-64" value="" style="rounded=0;whiteSpace=wrap;html=1;" vertex="1" parent="1">
          <mxGeometry x="92" y="1173" width="569" height="538" as="geometry" />
        </mxCell>
        <mxCell id="wA4WOY-ejQYb3zzODAYl-65" value="" style="rounded=0;whiteSpace=wrap;html=1;" vertex="1" parent="1">
          <mxGeometry x="114" y="1197" width="289" height="144" as="geometry" />
        </mxCell>
        <mxCell id="wA4WOY-ejQYb3zzODAYl-66" value="" style="rounded=0;whiteSpace=wrap;html=1;" vertex="1" parent="1">
          <mxGeometry x="114" y="1354" width="289" height="144" as="geometry" />
        </mxCell>
        <mxCell id="wA4WOY-ejQYb3zzODAYl-67" value="" style="rounded=0;whiteSpace=wrap;html=1;" vertex="1" parent="1">
          <mxGeometry x="112" y="1525" width="289" height="144" as="geometry" />
        </mxCell>
        <mxCell id="wA4WOY-ejQYb3zzODAYl-68" value="&amp;lt;Title&amp;gt;" style="text;html=1;align=center;verticalAlign=middle;whiteSpace=wrap;rounded=0;" vertex="1" parent="1">
          <mxGeometry x="123" y="1204" width="60" height="30" as="geometry" />
        </mxCell>
        <mxCell id="wA4WOY-ejQYb3zzODAYl-69" value="&amp;lt;Author&amp;gt;" style="text;html=1;align=center;verticalAlign=middle;whiteSpace=wrap;rounded=0;" vertex="1" parent="1">
          <mxGeometry x="123" y="1229" width="60" height="30" as="geometry" />
        </mxCell>
        <mxCell id="wA4WOY-ejQYb3zzODAYl-70" value="&amp;lt;Link to full text&amp;gt;" style="text;html=1;align=center;verticalAlign=middle;whiteSpace=wrap;rounded=0;" vertex="1" parent="1">
          <mxGeometry x="131" y="1286" width="60" height="30" as="geometry" />
        </mxCell>
        <mxCell id="wA4WOY-ejQYb3zzODAYl-71" value="" style="rounded=1;whiteSpace=wrap;html=1;" vertex="1" parent="1">
          <mxGeometry x="226" y="1221" width="135" height="82" as="geometry" />
        </mxCell>
        <mxCell id="wA4WOY-ejQYb3zzODAYl-72" value="&amp;lt;Abstract&amp;gt;" style="text;html=1;align=center;verticalAlign=middle;whiteSpace=wrap;rounded=0;" vertex="1" parent="1">
          <mxGeometry x="259" y="1229" width="60" height="30" as="geometry" />
        </mxCell>
        <mxCell id="wA4WOY-ejQYb3zzODAYl-73" value="" style="rounded=1;whiteSpace=wrap;html=1;" vertex="1" parent="1">
          <mxGeometry x="241.5" y="1368" width="135" height="82" as="geometry" />
        </mxCell>
        <mxCell id="wA4WOY-ejQYb3zzODAYl-74" value="" style="rounded=1;whiteSpace=wrap;html=1;" vertex="1" parent="1">
          <mxGeometry x="249" y="1547" width="135" height="82" as="geometry" />
        </mxCell>
        <mxCell id="wA4WOY-ejQYb3zzODAYl-75" value="&amp;lt;Abstract&amp;gt;" style="text;html=1;align=center;verticalAlign=middle;whiteSpace=wrap;rounded=0;" vertex="1" parent="1">
          <mxGeometry x="288" y="1377" width="60" height="30" as="geometry" />
        </mxCell>
        <mxCell id="wA4WOY-ejQYb3zzODAYl-76" value="&amp;lt;Abstract&amp;gt;" style="text;html=1;align=center;verticalAlign=middle;whiteSpace=wrap;rounded=0;" vertex="1" parent="1">
          <mxGeometry x="304" y="1552" width="60" height="30" as="geometry" />
        </mxCell>
        <mxCell id="wA4WOY-ejQYb3zzODAYl-77" value="&amp;lt;Title&amp;gt;" style="text;html=1;align=center;verticalAlign=middle;whiteSpace=wrap;rounded=0;" vertex="1" parent="1">
          <mxGeometry x="123" y="1368" width="60" height="30" as="geometry" />
        </mxCell>
        <mxCell id="wA4WOY-ejQYb3zzODAYl-78" value="&amp;lt;Author&amp;gt;" style="text;html=1;align=center;verticalAlign=middle;whiteSpace=wrap;rounded=0;" vertex="1" parent="1">
          <mxGeometry x="123" y="1558" width="60" height="30" as="geometry" />
        </mxCell>
        <mxCell id="wA4WOY-ejQYb3zzODAYl-79" value="&amp;lt;Link to full text&amp;gt;" style="text;html=1;align=center;verticalAlign=middle;whiteSpace=wrap;rounded=0;" vertex="1" parent="1">
          <mxGeometry x="129" y="1440" width="60" height="30" as="geometry" />
        </mxCell>
        <mxCell id="wA4WOY-ejQYb3zzODAYl-81" value="&amp;lt;Title&amp;gt;" style="text;html=1;align=center;verticalAlign=middle;whiteSpace=wrap;rounded=0;" vertex="1" parent="1">
          <mxGeometry x="118" y="1530" width="60" height="30" as="geometry" />
        </mxCell>
        <mxCell id="wA4WOY-ejQYb3zzODAYl-82" value="&amp;lt;Author&amp;gt;" style="text;html=1;align=center;verticalAlign=middle;whiteSpace=wrap;rounded=0;" vertex="1" parent="1">
          <mxGeometry x="125" y="1394" width="60" height="30" as="geometry" />
        </mxCell>
        <mxCell id="wA4WOY-ejQYb3zzODAYl-83" value="&amp;lt;Link to full text&amp;gt;" style="text;html=1;align=center;verticalAlign=middle;whiteSpace=wrap;rounded=0;" vertex="1" parent="1">
          <mxGeometry x="123" y="1595" width="60" height="30" as="geometry" />
        </mxCell>
        <mxCell id="wA4WOY-ejQYb3zzODAYl-84" value="Apply" style="rounded=1;whiteSpace=wrap;html=1;" vertex="1" parent="1">
          <mxGeometry x="428" y="101" width="62" height="21" as="geometry" />
        </mxCell>
        <mxCell id="wA4WOY-ejQYb3zzODAYl-86" value="" style="rounded=0;whiteSpace=wrap;html=1;" vertex="1" parent="1">
          <mxGeometry x="92" y="1674" width="581" height="404" as="geometry" />
        </mxCell>
        <mxCell id="wA4WOY-ejQYb3zzODAYl-87" value="" style="rounded=1;whiteSpace=wrap;html=1;" vertex="1" parent="1">
          <mxGeometry x="364" y="1890" width="227" height="128" as="geometry" />
        </mxCell>
        <mxCell id="wA4WOY-ejQYb3zzODAYl-88" value="" style="rounded=1;whiteSpace=wrap;html=1;" vertex="1" parent="1">
          <mxGeometry x="361" y="2083" width="227" height="128" as="geometry" />
        </mxCell>
        <mxCell id="wA4WOY-ejQYb3zzODAYl-89" value="Grad Students" style="text;html=1;align=center;verticalAlign=middle;whiteSpace=wrap;rounded=0;" vertex="1" parent="1">
          <mxGeometry x="174" y="1939" width="60" height="30" as="geometry" />
        </mxCell>
        <mxCell id="wA4WOY-ejQYb3zzODAYl-90" value="UnderGrad Students" style="text;html=1;align=center;verticalAlign=middle;whiteSpace=wrap;rounded=0;" vertex="1" parent="1">
          <mxGeometry x="178" y="2127" width="60" height="30" as="geometry" />
        </mxCell>
        <mxCell id="wA4WOY-ejQYb3zzODAYl-91" value="Application Form" style="text;html=1;align=center;verticalAlign=middle;whiteSpace=wrap;rounded=0;" vertex="1" parent="1">
          <mxGeometry x="435" y="2215" width="60" height="30" as="geometry" />
        </mxCell>
        <mxCell id="wA4WOY-ejQYb3zzODAYl-92" value="Application Form" style="text;html=1;align=center;verticalAlign=middle;whiteSpace=wrap;rounded=0;" vertex="1" parent="1">
          <mxGeometry x="437" y="2020" width="60" height="30" as="geometry" />
        </mxCell>
        <mxCell id="wA4WOY-ejQYb3zzODAYl-93" value="&amp;lt; Student Information &amp;gt;" style="text;html=1;align=center;verticalAlign=middle;whiteSpace=wrap;rounded=0;" vertex="1" parent="1">
          <mxGeometry x="418" y="1933" width="136" height="30" as="geometry" />
        </mxCell>
        <mxCell id="wA4WOY-ejQYb3zzODAYl-94" value="&amp;lt; Student Information &amp;gt;" style="text;html=1;align=center;verticalAlign=middle;whiteSpace=wrap;rounded=0;" vertex="1" parent="1">
          <mxGeometry x="409.5" y="2132" width="136" height="30" as="geometry" />
        </mxCell>
        <mxCell id="wA4WOY-ejQYb3zzODAYl-95" value="ChatBot Interface" style="text;html=1;align=center;verticalAlign=middle;whiteSpace=wrap;rounded=0;" vertex="1" parent="1">
          <mxGeometry x="63" y="2362" width="60" height="30" as="geometry" />
        </mxCell>
        <mxCell id="wA4WOY-ejQYb3zzODAYl-96" value="" style="sketch=0;points=[[0,0,0],[0.25,0,0],[0.5,0,0],[0.75,0,0],[1,0,0],[0,1,0],[0.25,1,0],[0.5,1,0],[0.75,1,0],[1,1,0],[0,0.25,0],[0,0.5,0],[0,0.75,0],[1,0.25,0],[1,0.5,0],[1,0.75,0]];points=[[0,0,0],[0.25,0,0],[0.5,0,0],[0.75,0,0],[1,0,0],[0,1,0],[0.25,1,0],[0.5,1,0],[0.75,1,0],[1,1,0],[0,0.25,0],[0,0.5,0],[0,0.75,0],[1,0.25,0],[1,0.5,0],[1,0.75,0]];outlineConnect=0;fontColor=#232F3E;fillColor=#E7157B;strokeColor=#ffffff;dashed=0;verticalLabelPosition=bottom;verticalAlign=top;align=center;html=1;fontSize=12;fontStyle=0;aspect=fixed;shape=mxgraph.aws4.resourceIcon;resIcon=mxgraph.aws4.chatbot;" vertex="1" parent="1">
          <mxGeometry x="110" y="2409" width="78" height="78" as="geometry" />
        </mxCell>
        <mxCell id="wA4WOY-ejQYb3zzODAYl-97" value="" style="endArrow=none;dashed=1;html=1;dashPattern=1 3;strokeWidth=2;rounded=0;" edge="1" parent="1">
          <mxGeometry width="50" height="50" relative="1" as="geometry">
            <mxPoint x="206" y="2448" as="sourcePoint" />
            <mxPoint x="289" y="2450" as="targetPoint" />
          </mxGeometry>
        </mxCell>
        <mxCell id="wA4WOY-ejQYb3zzODAYl-98" value="On Click" style="text;html=1;align=center;verticalAlign=middle;whiteSpace=wrap;rounded=0;" vertex="1" parent="1">
          <mxGeometry x="210" y="2474" width="60" height="30" as="geometry" />
        </mxCell>
        <mxCell id="wA4WOY-ejQYb3zzODAYl-99" value="" style="rounded=1;whiteSpace=wrap;html=1;" vertex="1" parent="1">
          <mxGeometry x="294" y="2386" width="150" height="147" as="geometry" />
        </mxCell>
        <mxCell id="wA4WOY-ejQYb3zzODAYl-100" value="Active Projects" style="text;html=1;align=center;verticalAlign=middle;whiteSpace=wrap;rounded=0;" vertex="1" parent="1">
          <mxGeometry x="301" y="2397" width="60" height="30" as="geometry" />
        </mxCell>
        <mxCell id="wA4WOY-ejQYb3zzODAYl-101" value="Publications" style="text;html=1;align=center;verticalAlign=middle;whiteSpace=wrap;rounded=0;" vertex="1" parent="1">
          <mxGeometry x="304" y="2436" width="72" height="30" as="geometry" />
        </mxCell>
        <mxCell id="wA4WOY-ejQYb3zzODAYl-102" value="Apply for research" style="text;html=1;align=center;verticalAlign=middle;whiteSpace=wrap;rounded=0;" vertex="1" parent="1">
          <mxGeometry x="307" y="2479" width="60" height="30" as="geometry" />
        </mxCell>
        <mxCell id="wA4WOY-ejQYb3zzODAYl-103" value="" style="rounded=1;whiteSpace=wrap;html=1;fillColor=none;" vertex="1" parent="1">
          <mxGeometry x="301" y="2392" width="65" height="36" as="geometry" />
        </mxCell>
        <mxCell id="wA4WOY-ejQYb3zzODAYl-104" value="" style="rounded=1;whiteSpace=wrap;html=1;fillColor=none;" vertex="1" parent="1">
          <mxGeometry x="300" y="2436" width="76" height="29" as="geometry" />
        </mxCell>
        <mxCell id="wA4WOY-ejQYb3zzODAYl-105" value="" style="rounded=1;whiteSpace=wrap;html=1;fillColor=none;" vertex="1" parent="1">
          <mxGeometry x="303" y="2473" width="74" height="42" as="geometry" />
        </mxCell>
        <mxCell id="wA4WOY-ejQYb3zzODAYl-106" value="On Click" style="text;html=1;align=center;verticalAlign=middle;whiteSpace=wrap;rounded=0;rotation=-90;" vertex="1" parent="1">
          <mxGeometry x="360" y="2433" width="92" height="40" as="geometry" />
        </mxCell>
        <mxCell id="wA4WOY-ejQYb3zzODAYl-109" value="" style="endArrow=none;dashed=1;html=1;dashPattern=1 3;strokeWidth=2;rounded=0;exitX=1.113;exitY=0.933;exitDx=0;exitDy=0;exitPerimeter=0;" edge="1" parent="1" source="wA4WOY-ejQYb3zzODAYl-108">
          <mxGeometry width="50" height="50" relative="1" as="geometry">
            <mxPoint x="320" y="2581" as="sourcePoint" />
            <mxPoint x="370" y="2531" as="targetPoint" />
          </mxGeometry>
        </mxCell>
        <mxCell id="wA4WOY-ejQYb3zzODAYl-114" value="" style="group" vertex="1" connectable="0" parent="1">
          <mxGeometry x="71" y="2583" width="154" height="181.5" as="geometry" />
        </mxCell>
        <mxCell id="wA4WOY-ejQYb3zzODAYl-107" value="" style="rounded=1;whiteSpace=wrap;html=1;" vertex="1" parent="wA4WOY-ejQYb3zzODAYl-114">
          <mxGeometry x="1" y="34.5" width="153" height="147" as="geometry" />
        </mxCell>
        <mxCell id="wA4WOY-ejQYb3zzODAYl-108" value="Active Projects" style="text;html=1;align=center;verticalAlign=middle;whiteSpace=wrap;rounded=0;" vertex="1" parent="wA4WOY-ejQYb3zzODAYl-114">
          <mxGeometry width="80" height="30" as="geometry" />
        </mxCell>
        <mxCell id="wA4WOY-ejQYb3zzODAYl-110" value="Project 1" style="rounded=1;whiteSpace=wrap;html=1;" vertex="1" parent="wA4WOY-ejQYb3zzODAYl-114">
          <mxGeometry x="20" y="50" width="71" height="22" as="geometry" />
        </mxCell>
        <mxCell id="wA4WOY-ejQYb3zzODAYl-111" value="Project 2" style="rounded=1;whiteSpace=wrap;html=1;" vertex="1" parent="wA4WOY-ejQYb3zzODAYl-114">
          <mxGeometry x="22" y="92" width="71" height="22" as="geometry" />
        </mxCell>
        <mxCell id="wA4WOY-ejQYb3zzODAYl-112" value="Project N" style="rounded=1;whiteSpace=wrap;html=1;" vertex="1" parent="wA4WOY-ejQYb3zzODAYl-114">
          <mxGeometry x="24" y="144" width="71" height="22" as="geometry" />
        </mxCell>
        <mxCell id="wA4WOY-ejQYb3zzODAYl-113" value="On Click" style="text;html=1;align=center;verticalAlign=middle;whiteSpace=wrap;rounded=0;rotation=-90;" vertex="1" parent="wA4WOY-ejQYb3zzODAYl-114">
          <mxGeometry x="81" y="88" width="92" height="40" as="geometry" />
        </mxCell>
        <mxCell id="wA4WOY-ejQYb3zzODAYl-122" value="" style="group" vertex="1" connectable="0" parent="1">
          <mxGeometry x="298" y="2583" width="154" height="181.5" as="geometry" />
        </mxCell>
        <mxCell id="wA4WOY-ejQYb3zzODAYl-123" value="" style="rounded=1;whiteSpace=wrap;html=1;" vertex="1" parent="wA4WOY-ejQYb3zzODAYl-122">
          <mxGeometry x="1" y="34.5" width="153" height="147" as="geometry" />
        </mxCell>
        <mxCell id="wA4WOY-ejQYb3zzODAYl-124" value="Publication" style="text;html=1;align=center;verticalAlign=middle;whiteSpace=wrap;rounded=0;" vertex="1" parent="wA4WOY-ejQYb3zzODAYl-122">
          <mxGeometry width="80" height="30" as="geometry" />
        </mxCell>
        <mxCell id="wA4WOY-ejQYb3zzODAYl-125" value="Project 1" style="rounded=1;whiteSpace=wrap;html=1;" vertex="1" parent="wA4WOY-ejQYb3zzODAYl-122">
          <mxGeometry x="20" y="50" width="71" height="22" as="geometry" />
        </mxCell>
        <mxCell id="wA4WOY-ejQYb3zzODAYl-126" value="Project 2" style="rounded=1;whiteSpace=wrap;html=1;" vertex="1" parent="wA4WOY-ejQYb3zzODAYl-122">
          <mxGeometry x="22" y="92" width="71" height="22" as="geometry" />
        </mxCell>
        <mxCell id="wA4WOY-ejQYb3zzODAYl-127" value="Project N" style="rounded=1;whiteSpace=wrap;html=1;" vertex="1" parent="wA4WOY-ejQYb3zzODAYl-122">
          <mxGeometry x="24" y="144" width="71" height="22" as="geometry" />
        </mxCell>
        <mxCell id="wA4WOY-ejQYb3zzODAYl-128" value="On Click" style="text;html=1;align=center;verticalAlign=middle;whiteSpace=wrap;rounded=0;rotation=-90;" vertex="1" parent="wA4WOY-ejQYb3zzODAYl-122">
          <mxGeometry x="81" y="88" width="92" height="40" as="geometry" />
        </mxCell>
        <mxCell id="wA4WOY-ejQYb3zzODAYl-129" value="" style="group" vertex="1" connectable="0" parent="1">
          <mxGeometry x="545.5" y="2585" width="154" height="181.5" as="geometry" />
        </mxCell>
        <mxCell id="wA4WOY-ejQYb3zzODAYl-130" value="" style="rounded=1;whiteSpace=wrap;html=1;" vertex="1" parent="wA4WOY-ejQYb3zzODAYl-129">
          <mxGeometry x="1" y="34.5" width="153" height="147" as="geometry" />
        </mxCell>
        <mxCell id="wA4WOY-ejQYb3zzODAYl-131" value="Research Opportunity" style="text;html=1;align=center;verticalAlign=middle;whiteSpace=wrap;rounded=0;" vertex="1" parent="wA4WOY-ejQYb3zzODAYl-129">
          <mxGeometry width="80" height="30" as="geometry" />
        </mxCell>
        <mxCell id="wA4WOY-ejQYb3zzODAYl-132" value="Project 1" style="rounded=1;whiteSpace=wrap;html=1;" vertex="1" parent="wA4WOY-ejQYb3zzODAYl-129">
          <mxGeometry x="20" y="50" width="71" height="22" as="geometry" />
        </mxCell>
        <mxCell id="wA4WOY-ejQYb3zzODAYl-133" value="Project 2" style="rounded=1;whiteSpace=wrap;html=1;" vertex="1" parent="wA4WOY-ejQYb3zzODAYl-129">
          <mxGeometry x="22" y="92" width="71" height="22" as="geometry" />
        </mxCell>
        <mxCell id="wA4WOY-ejQYb3zzODAYl-134" value="Project N" style="rounded=1;whiteSpace=wrap;html=1;" vertex="1" parent="wA4WOY-ejQYb3zzODAYl-129">
          <mxGeometry x="24" y="144" width="71" height="22" as="geometry" />
        </mxCell>
        <mxCell id="wA4WOY-ejQYb3zzODAYl-135" value="On Click" style="text;html=1;align=center;verticalAlign=middle;whiteSpace=wrap;rounded=0;rotation=-90;" vertex="1" parent="wA4WOY-ejQYb3zzODAYl-129">
          <mxGeometry x="81" y="88" width="92" height="40" as="geometry" />
        </mxCell>
        <mxCell id="wA4WOY-ejQYb3zzODAYl-136" value="" style="group" vertex="1" connectable="0" parent="1">
          <mxGeometry x="68" y="2839" width="154" height="181.5" as="geometry" />
        </mxCell>
        <mxCell id="wA4WOY-ejQYb3zzODAYl-137" value="" style="rounded=1;whiteSpace=wrap;html=1;" vertex="1" parent="wA4WOY-ejQYb3zzODAYl-136">
          <mxGeometry x="1" y="34.5" width="153" height="147" as="geometry" />
        </mxCell>
        <mxCell id="wA4WOY-ejQYb3zzODAYl-138" value="Project N" style="text;html=1;align=center;verticalAlign=middle;whiteSpace=wrap;rounded=0;" vertex="1" parent="wA4WOY-ejQYb3zzODAYl-136">
          <mxGeometry width="80" height="30" as="geometry" />
        </mxCell>
        <mxCell id="wA4WOY-ejQYb3zzODAYl-139" value="Topic" style="rounded=1;whiteSpace=wrap;html=1;" vertex="1" parent="wA4WOY-ejQYb3zzODAYl-136">
          <mxGeometry x="20" y="50" width="71" height="22" as="geometry" />
        </mxCell>
        <mxCell id="wA4WOY-ejQYb3zzODAYl-140" value="Abstract" style="rounded=1;whiteSpace=wrap;html=1;" vertex="1" parent="wA4WOY-ejQYb3zzODAYl-136">
          <mxGeometry x="22" y="92" width="71" height="22" as="geometry" />
        </mxCell>
        <mxCell id="wA4WOY-ejQYb3zzODAYl-141" value="Researcher profile" style="rounded=1;whiteSpace=wrap;html=1;" vertex="1" parent="wA4WOY-ejQYb3zzODAYl-136">
          <mxGeometry x="24" y="135" width="97" height="31" as="geometry" />
        </mxCell>
        <mxCell id="wA4WOY-ejQYb3zzODAYl-142" value="Home" style="text;html=1;align=center;verticalAlign=middle;whiteSpace=wrap;rounded=0;rotation=-90;" vertex="1" parent="wA4WOY-ejQYb3zzODAYl-136">
          <mxGeometry x="81" y="88" width="92" height="40" as="geometry" />
        </mxCell>
        <mxCell id="wA4WOY-ejQYb3zzODAYl-143" value="" style="endArrow=none;dashed=1;html=1;dashPattern=1 3;strokeWidth=2;rounded=0;" edge="1" parent="1">
          <mxGeometry width="50" height="50" relative="1" as="geometry">
            <mxPoint x="173" y="2867" as="sourcePoint" />
            <mxPoint x="175" y="2765" as="targetPoint" />
          </mxGeometry>
        </mxCell>
        <mxCell id="wA4WOY-ejQYb3zzODAYl-144" value="" style="group" vertex="1" connectable="0" parent="1">
          <mxGeometry x="564" y="2839" width="154" height="181.5" as="geometry" />
        </mxCell>
        <mxCell id="wA4WOY-ejQYb3zzODAYl-145" value="" style="rounded=1;whiteSpace=wrap;html=1;" vertex="1" parent="wA4WOY-ejQYb3zzODAYl-144">
          <mxGeometry x="1" y="34.5" width="153" height="147" as="geometry" />
        </mxCell>
        <mxCell id="wA4WOY-ejQYb3zzODAYl-146" value="Project N" style="text;html=1;align=center;verticalAlign=middle;whiteSpace=wrap;rounded=0;" vertex="1" parent="wA4WOY-ejQYb3zzODAYl-144">
          <mxGeometry width="80" height="30" as="geometry" />
        </mxCell>
        <mxCell id="wA4WOY-ejQYb3zzODAYl-147" value="Skill set" style="rounded=1;whiteSpace=wrap;html=1;" vertex="1" parent="wA4WOY-ejQYb3zzODAYl-144">
          <mxGeometry x="20" y="50" width="71" height="22" as="geometry" />
        </mxCell>
        <mxCell id="wA4WOY-ejQYb3zzODAYl-148" value="Duration" style="rounded=1;whiteSpace=wrap;html=1;" vertex="1" parent="wA4WOY-ejQYb3zzODAYl-144">
          <mxGeometry x="22" y="92" width="71" height="22" as="geometry" />
        </mxCell>
        <mxCell id="wA4WOY-ejQYb3zzODAYl-149" value="Application form link" style="rounded=1;whiteSpace=wrap;html=1;" vertex="1" parent="wA4WOY-ejQYb3zzODAYl-144">
          <mxGeometry x="24" y="133" width="77" height="33" as="geometry" />
        </mxCell>
        <mxCell id="wA4WOY-ejQYb3zzODAYl-150" value="Home" style="text;html=1;align=center;verticalAlign=middle;whiteSpace=wrap;rounded=0;rotation=-90;" vertex="1" parent="wA4WOY-ejQYb3zzODAYl-144">
          <mxGeometry x="81" y="88" width="92" height="40" as="geometry" />
        </mxCell>
        <mxCell id="wA4WOY-ejQYb3zzODAYl-151" value="" style="group" vertex="1" connectable="0" parent="1">
          <mxGeometry x="301" y="2844" width="154" height="181.5" as="geometry" />
        </mxCell>
        <mxCell id="wA4WOY-ejQYb3zzODAYl-152" value="" style="rounded=1;whiteSpace=wrap;html=1;" vertex="1" parent="wA4WOY-ejQYb3zzODAYl-151">
          <mxGeometry x="1" y="34.5" width="153" height="147" as="geometry" />
        </mxCell>
        <mxCell id="wA4WOY-ejQYb3zzODAYl-153" value="Project N" style="text;html=1;align=center;verticalAlign=middle;whiteSpace=wrap;rounded=0;" vertex="1" parent="wA4WOY-ejQYb3zzODAYl-151">
          <mxGeometry width="80" height="30" as="geometry" />
        </mxCell>
        <mxCell id="wA4WOY-ejQYb3zzODAYl-154" value="Subject line" style="rounded=1;whiteSpace=wrap;html=1;" vertex="1" parent="wA4WOY-ejQYb3zzODAYl-151">
          <mxGeometry x="20" y="50" width="71" height="22" as="geometry" />
        </mxCell>
        <mxCell id="wA4WOY-ejQYb3zzODAYl-155" value="Link to publication" style="rounded=1;whiteSpace=wrap;html=1;" vertex="1" parent="wA4WOY-ejQYb3zzODAYl-151">
          <mxGeometry x="22" y="82" width="71" height="32" as="geometry" />
        </mxCell>
        <mxCell id="wA4WOY-ejQYb3zzODAYl-156" value="Download" style="rounded=1;whiteSpace=wrap;html=1;" vertex="1" parent="wA4WOY-ejQYb3zzODAYl-151">
          <mxGeometry x="24" y="144" width="71" height="22" as="geometry" />
        </mxCell>
        <mxCell id="wA4WOY-ejQYb3zzODAYl-157" value="Home" style="text;html=1;align=center;verticalAlign=middle;whiteSpace=wrap;rounded=0;rotation=-90;" vertex="1" parent="wA4WOY-ejQYb3zzODAYl-151">
          <mxGeometry x="81" y="88" width="92" height="40" as="geometry" />
        </mxCell>
        <mxCell id="wA4WOY-ejQYb3zzODAYl-158" value="" style="endArrow=none;dashed=1;html=1;dashPattern=1 3;strokeWidth=2;rounded=0;" edge="1" parent="1">
          <mxGeometry width="50" height="50" relative="1" as="geometry">
            <mxPoint x="402" y="2870" as="sourcePoint" />
            <mxPoint x="404" y="2768" as="targetPoint" />
          </mxGeometry>
        </mxCell>
        <mxCell id="wA4WOY-ejQYb3zzODAYl-159" value="" style="endArrow=none;dashed=1;html=1;dashPattern=1 3;strokeWidth=2;rounded=0;" edge="1" parent="1">
          <mxGeometry width="50" height="50" relative="1" as="geometry">
            <mxPoint x="676" y="2861" as="sourcePoint" />
            <mxPoint x="676" y="2767" as="targetPoint" />
          </mxGeometry>
        </mxCell>
        <mxCell id="wA4WOY-ejQYb3zzODAYl-160" value="" style="endArrow=none;dashed=1;html=1;dashPattern=1 3;strokeWidth=2;rounded=0;entryX=0.62;entryY=1;entryDx=0;entryDy=0;entryPerimeter=0;exitX=1.113;exitY=1;exitDx=0;exitDy=0;exitPerimeter=0;" edge="1" parent="1" source="wA4WOY-ejQYb3zzODAYl-124" target="wA4WOY-ejQYb3zzODAYl-99">
          <mxGeometry width="50" height="50" relative="1" as="geometry">
            <mxPoint x="372" y="2595" as="sourcePoint" />
            <mxPoint x="422" y="2545" as="targetPoint" />
          </mxGeometry>
        </mxCell>
        <mxCell id="wA4WOY-ejQYb3zzODAYl-161" value="" style="endArrow=none;dashed=1;html=1;dashPattern=1 3;strokeWidth=2;rounded=0;" edge="1" parent="1">
          <mxGeometry width="50" height="50" relative="1" as="geometry">
            <mxPoint x="374" y="2734" as="sourcePoint" />
            <mxPoint x="424" y="2684" as="targetPoint" />
          </mxGeometry>
        </mxCell>
        <mxCell id="wA4WOY-ejQYb3zzODAYl-162" value="" style="endArrow=none;dashed=1;html=1;dashPattern=1 3;strokeWidth=2;rounded=0;exitX=0.025;exitY=1.233;exitDx=0;exitDy=0;exitPerimeter=0;" edge="1" parent="1" source="wA4WOY-ejQYb3zzODAYl-131">
          <mxGeometry width="50" height="50" relative="1" as="geometry">
            <mxPoint x="505" y="2590" as="sourcePoint" />
            <mxPoint x="397" y="2535" as="targetPoint" />
          </mxGeometry>
        </mxCell>
        <mxCell id="wA4WOY-ejQYb3zzODAYl-163" value="" style="endArrow=classic;html=1;rounded=0;entryX=1;entryY=0.68;entryDx=0;entryDy=0;entryPerimeter=0;" edge="1" parent="1" target="wA4WOY-ejQYb3zzODAYl-99">
          <mxGeometry width="50" height="50" relative="1" as="geometry">
            <mxPoint x="719" y="2947" as="sourcePoint" />
            <mxPoint x="728" y="2508" as="targetPoint" />
            <Array as="points">
              <mxPoint x="779" y="2944" />
              <mxPoint x="774" y="2736" />
              <mxPoint x="774" y="2486" />
            </Array>
          </mxGeometry>
        </mxCell>
        <mxCell id="wA4WOY-ejQYb3zzODAYl-164" value="" style="endArrow=classic;html=1;rounded=0;exitX=0;exitY=0.5;exitDx=0;exitDy=0;" edge="1" parent="1" source="wA4WOY-ejQYb3zzODAYl-137">
          <mxGeometry width="50" height="50" relative="1" as="geometry">
            <mxPoint x="-15" y="2911" as="sourcePoint" />
            <mxPoint x="289" y="2493" as="targetPoint" />
            <Array as="points">
              <mxPoint x="24" y="2947" />
              <mxPoint x="17" y="2496" />
            </Array>
          </mxGeometry>
        </mxCell>
        <mxCell id="wA4WOY-ejQYb3zzODAYl-165" value="" style="endArrow=classic;html=1;rounded=0;entryX=1;entryY=0.5;entryDx=0;entryDy=0;" edge="1" parent="1" target="wA4WOY-ejQYb3zzODAYl-99">
          <mxGeometry width="50" height="50" relative="1" as="geometry">
            <mxPoint x="385" y="3030" as="sourcePoint" />
            <mxPoint x="794" y="2456" as="targetPoint" />
            <Array as="points">
              <mxPoint x="383" y="3085" />
              <mxPoint x="801" y="3083" />
              <mxPoint x="796" y="2460" />
            </Array>
          </mxGeometry>
        </mxCell>
      </root>
    </mxGraphModel>
  </diagram>
</mxfile>
